<?xml version="1.0" encoding="UTF-8"?>
<svg aria-roledescription="flowchart-v2" role="graphics-document document" viewBox="-8 -8 1778.25 427" style="max-width: 1778.25px;" xmlns:xlink="http://www.w3.org/1999/xlink" xmlns="http://www.w3.org/2000/svg" width="1778.25" id="mermaid-1788530175505" height="427"><rect x="-8" y="-8" width="1778.25" height="427" fill="#ffffff"/><style>#mermaid-1788530175505{font-family:"trebuchet ms",verdana,arial,sans-serif;font-size:16px;fill:#000000;}#mermaid-1788530175505 .error-icon{fill:#552222;}#mermaid-1788530175505 .error-text{fill:#552222;stroke:#552222;}#mermaid-1788530175505 .edge-thickness-normal{stroke-width:2px;}#mermaid-1788530175505 .edge-thickness-thick{stroke-width:3.5px;}#mermaid-1788530175505 .edge-pattern-solid{stroke-dasharray:0;}#mermaid-1788530175505 .edge-pattern-dashed{stroke-dasharray:3;}#mermaid-1788530175505 .edge-pattern-dotted{stroke-dasharray:2;}#mermaid-1788530175505 .marker{fill:#666;stroke:#666;}#mermaid-1788530175505 .marker.cross{stroke:#666;}#mermaid-1788530175505 svg{font-family:"trebuchet ms",verdana,arial,sans-serif;font-size:16px;}#mermaid-1788530175505 .label{font-family:"trebuchet ms",verdana,arial,sans-serif;color:#000000;}#mermaid-1788530175505 .cluster-label text{fill:#333;}#mermaid-1788530175505 .cluster-label span,#mermaid-1788530175505 p{color:#333;}#mermaid-1788530175505 .label text,#mermaid-1788530175505 span,#mermaid-1788530175505 p{fill:#000000;color:#000000;}#mermaid-1788530175505 .node rect,#mermaid-1788530175505 .node circle,#mermaid-1788530175505 .node ellipse,#mermaid-1788530175505 .node polygon,#mermaid-1788530175505 .node path{fill:#eee;stroke:#999;stroke-width:1px;}#mermaid-1788530175505 .flowchart-label text{text-anchor:middle;}#mermaid-1788530175505 .node .katex path{fill:#000;stroke:#000;stroke-width:1px;}#mermaid-1788530175505 .node .label{text-align:center;}#mermaid-1788530175505 .node.clickable{cursor:pointer;}#mermaid-1788530175505 .arrowheadPath{fill:#333333;}#mermaid-1788530175505 .edgePath .path{stroke:#666;stroke-width:2.0px;}#mermaid-1788530175505 .flowchart-link{stroke:#666;fill:none;}#mermaid-1788530175505 .edgeLabel{background-color:white;text-align:center;}#mermaid-1788530175505 .edgeLabel rect{opacity:0.5;background-color:white;fill:white;}#mermaid-1788530175505 .labelBkg{background-color:rgba(255, 255, 255, 0.5);}#mermaid-1788530175505 .cluster rect{fill:hsl(0, 0%, 98.9215686275%);stroke:#707070;stroke-width:1px;}#mermaid-1788530175505 .cluster text{fill:#333;}#mermaid-1788530175505 .cluster span,#mermaid-1788530175505 p{color:#333;}#mermaid-1788530175505 div.mermaidTooltip{position:absolute;text-align:center;max-width:200px;padding:2px;font-family:"trebuchet ms",verdana,arial,sans-serif;font-size:12px;background:hsl(-160, 0%, 93.3333333333%);border:1px solid #707070;border-radius:2px;pointer-events:none;z-index:100;}#mermaid-1788530175505 .flowchartTitleText{text-anchor:middle;font-size:18px;fill:#000000;}#mermaid-1788530175505 :root{--mermaid-font-family:"trebuchet ms",verdana,arial,sans-serif;}#mermaid-1788530175505 .stage&gt;*{fill:#e6f4ea!important;stroke:#34a853!important;color:#111!important;}#mermaid-1788530175505 .stage span{fill:#e6f4ea!important;stroke:#34a853!important;color:#111!important;}#mermaid-1788530175505 .stage tspan{fill:#111!important;}#mermaid-1788530175505 .bundle&gt;*{fill:#fef7e0!important;stroke:#fbbc04!important;color:#111!important;}#mermaid-1788530175505 .bundle span{fill:#fef7e0!important;stroke:#fbbc04!important;color:#111!important;}#mermaid-1788530175505 .bundle tspan{fill:#111!important;}</style><g><marker orient="auto" markerHeight="12" markerWidth="12" markerUnits="userSpaceOnUse" refY="5" refX="6" viewBox="0 0 10 10" class="marker flowchart" id="mermaid-1788530175505_flowchart-pointEnd"><path style="stroke-width: 1; stroke-dasharray: 1, 0;" class="arrowMarkerPath" d="M 0 0 L 10 5 L 0 10 z"/></marker><marker orient="auto" markerHeight="12" markerWidth="12" markerUnits="userSpaceOnUse" refY="5" refX="4.5" viewBox="0 0 10 10" class="marker flowchart" id="mermaid-1788530175505_flowchart-pointStart"><path style="stroke-width: 1; stroke-dasharray: 1, 0;" class="arrowMarkerPath" d="M 0 5 L 10 10 L 10 0 z"/></marker><marker orient="auto" markerHeight="11" markerWidth="11" markerUnits="userSpaceOnUse" refY="5" refX="11" viewBox="0 0 10 10" class="marker flowchart" id="mermaid-1788530175505_flowchart-circleEnd"><circle style="stroke-width: 1; stroke-dasharray: 1, 0;" class="arrowMarkerPath" r="5" cy="5" cx="5"/></marker><marker orient="auto" markerHeight="11" markerWidth="11" markerUnits="userSpaceOnUse" refY="5" refX="-1" viewBox="0 0 10 10" class="marker flowchart" id="mermaid-1788530175505_flowchart-circleStart"><circle style="stroke-width: 1; stroke-dasharray: 1, 0;" class="arrowMarkerPath" r="5" cy="5" cx="5"/></marker><marker orient="auto" markerHeight="11" markerWidth="11" markerUnits="userSpaceOnUse" refY="5.2" refX="12" viewBox="0 0 11 11" class="marker cross flowchart" id="mermaid-1788530175505_flowchart-crossEnd"><path style="stroke-width: 2; stroke-dasharray: 1, 0;" class="arrowMarkerPath" d="M 1,1 l 9,9 M 10,1 l -9,9"/></marker><marker orient="auto" markerHeight="11" markerWidth="11" markerUnits="userSpaceOnUse" refY="5.2" refX="-1" viewBox="0 0 11 11" class="marker cross flowchart" id="mermaid-1788530175505_flowchart-crossStart"><path style="stroke-width: 2; stroke-dasharray: 1, 0;" class="arrowMarkerPath" d="M 1,1 l 9,9 M 10,1 l -9,9"/></marker><g class="root"><g class="clusters"><g id="PIPE" class="cluster default flowchart-label"><rect height="283" width="1762.25" y="128" x="0" ry="0" rx="0" style=""/><g transform="translate(797.5859375, 128)" class="cluster-label"><foreignObject height="19" width="167.078125"><div style="display: inline-block; white-space: nowrap;" xmlns="http://www.w3.org/1999/xhtml"><span class="nodeLabel">AI-native SDLC pipeline</span></div></foreignObject></g></g></g><g class="edgePaths"><path marker-end="url(#mermaid-1788530175505_flowchart-pointEnd)" style="fill:none;" class="edge-thickness-normal edge-pattern-solid flowchart-link LS-P LE-D" id="L-P-D-0" d="M867.188,259.25L871.354,259.25C875.521,259.25,883.854,259.25,891.419,257.321C898.984,255.393,905.781,251.536,909.18,249.607L912.578,247.678"/><path marker-end="url(#mermaid-1788530175505_flowchart-pointEnd)" style="fill:none;" class="edge-thickness-normal edge-pattern-solid flowchart-link LS-D LE-B" id="L-D-B-0" d="M992.297,223.75L1007.768,223.75C1023.24,223.75,1054.182,223.75,1084.242,223.75C1114.301,223.75,1143.477,223.75,1158.065,223.75L1172.653,223.75"/><path marker-end="url(#mermaid-1788530175505_flowchart-pointEnd)" style="fill:none;" class="edge-thickness-normal edge-pattern-solid flowchart-link LS-B LE-T" id="L-B-T-0" d="M1351.266,223.75L1355.432,223.75C1359.599,223.75,1367.932,223.75,1375.382,223.75C1382.832,223.75,1389.399,223.75,1392.682,223.75L1395.966,223.75"/><path marker-end="url(#mermaid-1788530175505_flowchart-pointEnd)" style="fill:none;" class="edge-thickness-normal edge-pattern-solid flowchart-link LS-T LE-DE" id="L-T-DE-0" d="M1540.203,223.75L1544.37,223.75C1548.536,223.75,1556.87,223.75,1572.342,234.88C1587.813,246.011,1610.423,268.271,1621.729,279.401L1633.034,290.532"/><path marker-end="url(#mermaid-1788530175505_flowchart-pointEnd)" style="fill:none;" class="edge-thickness-normal edge-pattern-solid flowchart-link LS-DE LE-M" id="L-DE-M-0" d="M1610.982,347.25L1603.352,351.083C1595.722,354.917,1580.463,362.583,1557.088,366.417C1533.714,370.25,1502.224,370.25,1470.734,370.25C1439.245,370.25,1407.755,370.25,1373.401,370.25C1339.047,370.25,1301.828,370.25,1253.305,370.25C1204.781,370.25,1144.953,370.25,1093.309,370.25C1041.664,370.25,998.203,370.25,966.047,370.25C933.891,370.25,913.039,370.25,891.236,370.25C869.432,370.25,846.677,370.25,818.813,370.25C790.948,370.25,757.974,370.25,708.891,370.25C659.807,370.25,594.615,370.25,524.159,370.25C453.703,370.25,377.984,370.25,326.458,368.038C274.931,365.826,247.597,361.401,233.93,359.189L220.263,356.977"/><path marker-end="url(#mermaid-1788530175505_flowchart-pointEnd)" style="fill:none;stroke-width:2px;stroke-dasharray:3;" class="edge-thickness-normal edge-pattern-dotted flowchart-link LS-KB LE-P" id="L-KB-P-0" d="M610.441,93L629.534,103.958C648.627,114.917,686.814,136.833,717.427,159.495C748.04,182.158,771.08,205.565,782.6,217.269L794.12,228.973"/><path marker-end="url(#mermaid-1788530175505_flowchart-pointEnd)" style="fill:none;stroke-width:2px;stroke-dasharray:3;" class="edge-thickness-normal edge-pattern-dotted flowchart-link LS-KB LE-D" id="L-KB-D-0" d="M593.58,93L615.483,108.875C637.387,124.75,681.193,156.5,719.584,172.375C757.974,188.25,790.948,188.25,818.813,188.25C846.677,188.25,869.432,188.25,884.208,190.179C898.984,192.107,905.781,195.964,909.18,197.893L912.578,199.822"/><path marker-end="url(#mermaid-1788530175505_flowchart-pointEnd)" style="stroke-width: 3.5px;fill:none;" class="edge-thickness-thick edge-pattern-solid flowchart-link LS-DE LE-KB" id="L-DE-KB-0" d="M1590.203,320.75L1586.036,320.75C1581.87,320.75,1573.536,320.75,1553.625,320.75C1533.714,320.75,1502.224,320.75,1470.734,320.75C1439.245,320.75,1407.755,320.75,1373.401,320.75C1339.047,320.75,1301.828,320.75,1253.305,320.75C1204.781,320.75,1144.953,320.75,1093.309,320.75C1041.664,320.75,998.203,320.75,966.047,320.75C933.891,320.75,913.039,320.75,891.236,320.75C869.432,320.75,846.677,320.75,818.813,320.75C790.948,320.75,757.974,320.75,714.93,283.511C671.887,246.272,618.773,171.793,592.217,134.554L565.66,97.315"/><path marker-end="url(#mermaid-1788530175505_flowchart-pointEnd)" style="stroke-width: 3.5px;fill:none;" class="edge-thickness-thick edge-pattern-solid flowchart-link LS-M LE-KB" id="L-M-KB-0" d="M165.686,314.25L188.449,301.042C211.212,287.833,256.739,261.417,307.343,225.106C357.946,188.795,413.627,142.59,441.467,119.487L469.307,96.385"/><path marker-end="url(#mermaid-1788530175505_flowchart-pointEnd)" style="fill:none;stroke-width:2px;stroke-dasharray:3;" class="edge-thickness-normal edge-pattern-dotted flowchart-link LS-M LE-P" id="L-M-P-0" d="M215.031,340.75L229.57,340.75C244.109,340.75,273.188,340.75,325.586,340.75C377.984,340.75,453.703,340.75,524.159,340.75C594.615,340.75,659.807,340.75,702.848,332.145C745.889,323.54,766.778,306.33,777.222,297.725L787.667,289.12"/></g><g class="edgeLabels"><g class="edgeLabel"><g transform="translate(0, 0)" class="label"><foreignObject height="0" width="0"><div style="display: inline-block; white-space: nowrap;" xmlns="http://www.w3.org/1999/xhtml"><span class="edgeLabel"></span></div></foreignObject></g></g><g class="edgeLabel"><g transform="translate(0, 0)" class="label"><foreignObject height="0" width="0"><div style="display: inline-block; white-space: nowrap;" xmlns="http://www.w3.org/1999/xhtml"><span class="edgeLabel"></span></div></foreignObject></g></g><g class="edgeLabel"><g transform="translate(0, 0)" class="label"><foreignObject height="0" width="0"><div style="display: inline-block; white-space: nowrap;" xmlns="http://www.w3.org/1999/xhtml"><span class="edgeLabel"></span></div></foreignObject></g></g><g class="edgeLabel"><g transform="translate(0, 0)" class="label"><foreignObject height="0" width="0"><div style="display: inline-block; white-space: nowrap;" xmlns="http://www.w3.org/1999/xhtml"><span class="edgeLabel"></span></div></foreignObject></g></g><g class="edgeLabel"><g transform="translate(0, 0)" class="label"><foreignObject height="0" width="0"><div style="display: inline-block; white-space: nowrap;" xmlns="http://www.w3.org/1999/xhtml"><span class="edgeLabel"></span></div></foreignObject></g></g><g transform="translate(725, 158.75)" class="edgeLabel"><g transform="translate(-30.65625, -9.5)" class="label"><foreignObject height="19" width="61.3125"><div style="display: inline-block; white-space: nowrap;" xmlns="http://www.w3.org/1999/xhtml"><span class="edgeLabel">① query</span></div></foreignObject></g></g><g transform="translate(823.921875, 188.25)" class="edgeLabel"><g transform="translate(-30.65625, -9.5)" class="label"><foreignObject height="19" width="61.3125"><div style="display: inline-block; white-space: nowrap;" xmlns="http://www.w3.org/1999/xhtml"><span class="edgeLabel">① query</span></div></foreignObject></g></g><g transform="translate(1085.125, 320.75)" class="edgeLabel"><g transform="translate(-67.828125, -9.5)" class="label"><foreignObject height="19" width="135.65625"><div style="display: inline-block; white-space: nowrap;" xmlns="http://www.w3.org/1999/xhtml"><span class="edgeLabel">② ingest on merge</span></div></foreignObject></g></g><g transform="translate(302.265625, 235)" class="edgeLabel"><g transform="translate(-62.234375, -9.5)" class="label"><foreignObject height="19" width="124.46875"><div style="display: inline-block; white-space: nowrap;" xmlns="http://www.w3.org/1999/xhtml"><span class="edgeLabel">② ingest findings</span></div></foreignObject></g></g><g transform="translate(529.421875, 340.75)" class="edgeLabel"><g transform="translate(-117.0390625, -9.5)" class="label"><foreignObject height="19" width="234.078125"><div style="display: inline-block; white-space: nowrap;" xmlns="http://www.w3.org/1999/xhtml"><span class="edgeLabel">③ new intent.md · reopens loop</span></div></foreignObject></g></g></g><g class="nodes"><g transform="translate(120.015625, 340.75)" data-id="M" data-node="true" id="flowchart-M-5" class="node default stage flowchart-label"><rect height="53" width="190.03125" y="-26.5" x="-95.015625" ry="0" rx="0" style="" class="basic label-container"/><g transform="translate(-87.515625, -19)" style="" class="label"><rect/><foreignObject height="38" width="175.03125"><div style="display: inline-block; white-space: nowrap;" xmlns="http://www.w3.org/1999/xhtml"><span class="nodeLabel">Maintain<br />monitoring · <b>stale_after</b></span></div></foreignObject></g></g><g transform="translate(1663.7265625, 320.75)" data-id="DE" data-node="true" id="flowchart-DE-4" class="node default stage flowchart-label"><rect height="53" width="147.046875" y="-26.5" x="-73.5234375" ry="0" rx="0" style="" class="basic label-container"/><g transform="translate(-66.0234375, -19)" style="" class="label"><rect/><foreignObject height="38" width="132.046875"><div style="display: inline-block; white-space: nowrap;" xmlns="http://www.w3.org/1999/xhtml"><span class="nodeLabel">Deploy<br />review → <b>verified</b></span></div></foreignObject></g></g><g transform="translate(1470.734375, 223.75)" data-id="T" data-node="true" id="flowchart-T-3" class="node default stage flowchart-label"><rect height="53" width="138.9375" y="-26.5" x="-69.46875" ry="0" rx="0" style="" class="basic label-container"/><g transform="translate(-61.96875, -19)" style="" class="label"><rect/><foreignObject height="38" width="123.9375"><div style="display: inline-block; white-space: nowrap;" xmlns="http://www.w3.org/1999/xhtml"><span class="nodeLabel">Test<br />evals → <b>attested</b></span></div></foreignObject></g></g><g transform="translate(1264.609375, 223.75)" data-id="B" data-node="true" id="flowchart-B-2" class="node default stage flowchart-label"><rect height="53" width="173.3125" y="-26.5" x="-86.65625" ry="0" rx="0" style="" class="basic label-container"/><g transform="translate(-79.15625, -19)" style="" class="label"><rect/><foreignObject height="38" width="158.3125"><div style="display: inline-block; white-space: nowrap;" xmlns="http://www.w3.org/1999/xhtml"><span class="nodeLabel">Build<br />plan.md · CLAUDE.md</span></div></foreignObject></g></g><g transform="translate(954.7421875, 223.75)" data-id="D" data-node="true" id="flowchart-D-1" class="node default stage flowchart-label"><rect height="53" width="75.109375" y="-26.5" x="-37.5546875" ry="0" rx="0" style="" class="basic label-container"/><g transform="translate(-30.0546875, -19)" style="" class="label"><rect/><foreignObject height="38" width="60.109375"><div style="display: inline-block; white-space: nowrap;" xmlns="http://www.w3.org/1999/xhtml"><span class="nodeLabel">Design<br />spec.md</span></div></foreignObject></g></g><g transform="translate(823.921875, 259.25)" data-id="P" data-node="true" id="flowchart-P-0" class="node default stage flowchart-label"><rect height="53" width="86.53125" y="-26.5" x="-43.265625" ry="0" rx="0" style="" class="basic label-container"/><g transform="translate(-35.765625, -19)" style="" class="label"><rect/><foreignObject height="38" width="71.53125"><div style="display: inline-block; white-space: nowrap;" xmlns="http://www.w3.org/1999/xhtml"><span class="nodeLabel">Plan<br />intent.md</span></div></foreignObject></g></g><g transform="translate(529.421875, 46.5)" data-id="KB" data-node="true" id="flowchart-KB-6" class="node default bundle flowchart-label"><rect height="93" width="279.84375" y="-46.5" x="-139.921875" ry="46.5" rx="46.5" style=""/><g transform="translate(-120.796875, -39)" style="" class="label"><rect/><foreignObject height="78" width="241.59375"><div style="display: inline-block; white-space: nowrap;" xmlns="http://www.w3.org/1999/xhtml"><span class="nodeLabel">📚 OKF Knowledge Bundle<br />entities · concepts · summaries<br />index.md · log.md<br /><i>persistent, compounding memory</i></span></div></foreignObject></g></g></g></g></g></svg>